<?xml version="1.0" encoding="UTF-8"?>
<svg width="338px" height="83px" viewBox="0 0 338 83" version="1.1" xmlns="http://www.w3.org/2000/svg" xmlns:xlink="http://www.w3.org/1999/xlink">
    <!-- Generator: sketchtool 52.4 (67378) - http://www.bohemiancoding.com/sketch -->
    <title>7D32657F-0BD6-4C11-9E1F-31F1C1B9B19C</title>
    <desc>Created with sketchtool.</desc>
    <g id="desktop" stroke="none" stroke-width="1" fill="none" fill-rule="evenodd">
        <g id="index_black_asset" transform="translate(-1320.000000, -1206.000000)" fill="#FFFFFF" fill-rule="nonzero">
            <g id="img_opgglogo" transform="translate(1320.000000, 1205.000000)">
                <path d="M41.0445473,64.2304516 C29.1526673,64.2304516 19.4777351,54.458781 19.4777351,42.4467811 C19.4777351,30.4357693 29.1526673,20.6631105 41.0445473,20.6631105 C52.9334922,20.6631105 62.6084244,30.4357693 62.6084244,42.4467811 C62.6084244,54.458781 52.9334922,64.2304516 41.0445473,64.2304516 M41.0455257,0.988334115 C18.4132871,0.988334115 -0.000293505881,19.5859341 -0.000293505881,42.4457928 C-0.000293505881,65.307628 18.4132871,83.9062162 41.0455257,83.9062162 C63.6748291,83.9062162 82.0864531,65.307628 82.0864531,42.4457928 C82.0864531,19.5859341 63.6748291,0.988334115 41.0455257,0.988334115" id="Fill-1"></path>
                <path d="M130.635554,45.0264705 L108.325194,45.0264705 L108.325194,20.1683999 L130.635554,20.1683999 C138.333235,20.1683999 140.680304,27.4882587 140.680304,32.5974352 C140.680304,37.8647293 138.333235,45.0264705 130.635554,45.0264705 M160.066368,32.5974352 C160.066368,14.7726353 148.012081,1.00552941 130.726541,1.00552941 L89.9096567,1.00552941 L89.9096567,83.8364468 L108.322259,83.8364468 L108.325194,64.189341 L130.726541,64.189341 C147.391805,64.189341 160.066368,50.5151293 160.066368,32.5974352" id="Fill-4"></path>
                <path d="M251.126763,37.4563905 L214.564735,37.4563905 L214.564735,52.2868375 L231.320008,52.2868375 C229.984556,58.8240139 223.172284,64.683261 212.901535,64.683261 C200.752348,64.683261 190.86707,54.6991198 190.86707,42.4291905 C190.86707,30.1553081 200.752348,20.5417552 212.901535,20.5417552 C218.861661,20.5417552 224.449035,22.5547905 228.640299,26.8842493 L229.570713,27.8467905 L230.679187,27.1006729 L243.940761,18.1680141 L245.434706,17.1619905 L244.278292,15.7745082 C236.462231,6.38824939 225.023328,1.00533176 212.901535,1.00533176 C190.291799,1.00533176 171.895829,19.5881082 171.895829,42.4291905 C171.895829,65.2682963 190.291799,83.8471198 212.901535,83.8471198 C233.027234,83.8471198 247.462831,72.1444374 250.572037,53.3057081 C251.339066,48.6491434 251.54452,46.2862728 251.408529,42.4291905 C251.328304,40.1305552 251.215793,38.4900846 251.126763,37.4563905" id="Fill-6"></path>
                <path d="M337.241878,37.4669646 L300.678872,37.4669646 L300.678872,52.2964234 L317.434144,52.2964234 C316.100649,58.8335998 309.286421,64.6938351 299.014693,64.6938351 C286.866485,64.6938351 276.981207,54.709694 276.981207,42.4387763 C276.981207,30.164894 286.866485,20.5513411 299.014693,20.5513411 C304.973841,20.5513411 310.561215,22.5653646 314.755414,26.8938352 L315.685827,27.8563764 L316.794301,27.1102587 L330.054897,18.1785882 L331.54982,17.1715764 L330.393407,15.7840941 C322.57441,6.39882351 311.137465,1.01590588 299.014693,1.01590588 C276.403979,1.01590588 258.010943,19.5976941 258.010943,42.4387763 C258.010943,65.2788704 276.403979,83.8576939 299.014693,83.8576939 C319.142348,83.8576939 333.576968,72.1550116 336.686173,53.315294 C337.45418,48.6597175 337.658656,46.2958587 337.522665,42.4397646 C337.44244,40.1401411 337.32993,38.5006587 337.241878,37.4669646" id="Fill-8"></path>
                <path d="M160.064411,67.0291339 C155.477892,67.0291339 151.745476,70.7992516 151.745476,75.4340751 C151.745476,80.0669221 155.477892,83.8370398 160.064411,83.8370398 C164.652886,83.8370398 168.386281,80.0669221 168.386281,75.4340751 C168.386281,70.7992516 164.652886,67.0291339 160.064411,67.0291339" id="Fill-10"></path>
            </g>
        </g>
    </g>
</svg>