<svg xmlns="http://www.w3.org/2000/svg" width="32" height="32" viewBox="0 0 32 32">
    <path fill="#C3CBD1" d="M19.922 6.4c.531.083 1.087.188 1.648.317l.563.137v13.514s0 1.978-1.843 3.399l-.185.135-4.376 2.765-4.368-2.765c-1.9-1.337-2.02-3.273-2.027-3.51V6.86c.75-.195 1.502-.343 2.215-.459-.045.222-.073.46-.084.714l-.005.259V19.33c0 2.227 1.426 3.343 4.281 3.343 1.269 0 2.298-.291 3.087-.875.734-.542 1.125-1.3 1.177-2.269l.006-.227V11.79c0-.52-.764-1.677-2.421-1.789l-.221-.008h-.235c-1.287 0-1.716.124-1.983.461l-.045.062V7.4s.03-.338.61-.338c.568 0 .651.28.66.324l.002.005-.005 1.834h3.634v-1.88c0-.338-.03-.653-.085-.945zm-1.842 7.467l.853.466v1.4l-1.706.467v1.867h-1.28v3.266h-1.28V14.8l.426-.467h.854l.426.467 1.707-.933zm-1.28 2.8h-.853v.933h.853v-.933zM12.533 5.333c-.232.252-.41.541-.541.862-.68.091-1.395.21-2.117.356l-.542.116v-.793c1.102-.247 2.2-.422 3.2-.54zm6.4 0c.832.1 1.733.237 2.65.42l.55.116v.798c-.91-.207-1.813-.358-2.664-.472-.132-.321-.307-.61-.536-.862z"/>
</svg>
