<?xml version="1.0" encoding="UTF-8"?>
<svg width="100px" height="45px" viewBox="0 0 100 45" version="1.1" xmlns="http://www.w3.org/2000/svg" xmlns:xlink="http://www.w3.org/1999/xlink">
    <!-- Generator: sketchtool 52.2 (67145) - http://www.bohemiancoding.com/sketch -->
    <title>6A425F27-5B27-423F-8D9A-0405251D3186</title>
    <desc>Created with sketchtool.</desc>
    <g id="desktop" stroke="none" stroke-width="1" fill="none" fill-rule="evenodd">
        <g id="index_black_asset" transform="translate(-1287.000000, -1410.000000)" fill="#5383e8" fill-rule="nonzero">
            <g id="Group-13" transform="translate(1287.000000, 1410.000000)">
                <path d="M53.0787105,19.5471333 C53.1260868,20.1011991 53.185958,20.9805004 53.2286487,22.2125817 C53.3010148,24.2799992 53.1916848,25.5465109 52.7835196,28.0424554 C51.128993,38.1401188 43.447262,44.4128214 32.7376118,44.4128214 C20.7061104,44.4128214 10.9169144,34.454469 10.9169144,22.2125817 C10.9169144,9.96963497 20.7061104,0.00916380298 32.7376118,0.00916380298 C39.1880792,0.00916380298 45.2751547,2.89443749 49.4343786,7.92552424 L50.0497501,8.66922247 L49.2547651,9.20845665 L42.1977768,13.9964113 L41.6079156,14.3963345 L41.1128071,13.8804071 C38.882476,11.5597932 35.9092218,10.4807951 32.7376118,10.4807951 C26.2725671,10.4807951 21.0122343,15.6337127 21.0122343,22.2125817 C21.0122343,28.7893319 26.2725671,34.1408868 32.7376118,34.1408868 C38.2030684,34.1408868 41.8281374,31.000298 42.5387821,27.4963351 L33.6226638,27.4963351 L33.6226638,19.5471333 L53.0787105,19.5471333 Z M98.9038411,19.5528011 C98.9506968,20.1068669 99.010568,20.9856385 99.0532587,22.2182495 C99.1256248,24.2851373 99.0168154,25.5521787 98.6081296,28.0475935 C96.953603,38.1457866 89.2723926,44.4184892 78.5617012,44.4184892 C66.5296792,44.4184892 56.742045,34.4601368 56.742045,22.2177198 C56.742045,9.97477306 66.5296792,0.0148315886 78.5617012,0.0148315886 C85.0126892,0.0148315886 91.0987235,2.90010528 95.2595093,7.93066232 L95.8748807,8.67436055 L95.0793751,9.21412444 L88.0229074,14.0015494 L87.4330462,14.4014726 L86.9379377,13.8855452 C84.7060447,11.5654609 81.7327906,10.4859332 78.5617012,10.4859332 C72.0971771,10.4859332 66.8368443,15.6388508 66.8368443,22.2177198 C66.8368443,28.7949996 72.0971771,34.1465546 78.5617012,34.1465546 C84.0276784,34.1465546 87.6537886,31.005436 88.3633921,27.5014732 L79.4472738,27.5014732 L79.4472738,19.5528011 L98.9038411,19.5528011 Z M4.6209666,35.3982877 C7.06266896,35.3982877 9.04935046,37.4190917 9.04935046,39.9033828 C9.04935046,42.3866145 7.06266896,44.4074184 4.6209666,44.4074184 C2.18030548,44.4074184 0.194144603,42.3866145 0.194144603,39.9033828 C0.194144603,37.4190917 2.18030548,35.3982877 4.6209666,35.3982877 Z" id="icon_gg"></path>
            </g>
        </g>
    </g>
</svg>