<svg xmlns="http://www.w3.org/2000/svg" width="32" height="32" viewBox="0 0 32 32">
    <path fill="#C3CBD1" d="M23.22 8.17c2.113 1.95 3.447 4.734 3.447 7.83 0 5.882-4.785 10.667-10.667 10.667S5.333 21.882 5.333 16c0-2.988 1.24-5.69 3.225-7.628l2.119 2.401C9.353 12.121 8.533 13.966 8.533 16c0 1.376.375 2.667 1.027 3.775l4.307-4.308 1.6-4.267v6.933l-3.884 3.884c1.238.911 2.766 1.45 4.417 1.45 1.651 0 3.179-.539 4.417-1.45l-3.884-3.884V11.2l1.6 4.267 4.307 4.308c.652-1.108 1.027-2.399 1.027-3.775 0-2.11-.884-4.014-2.295-5.373zM16 5.333c2.403 0 4.614.808 6.4 2.154l-2.049 2.458C19.125 9.06 17.625 8.533 16 8.533c-1.635 0-3.224.541-4.52 1.538L9.359 7.667c1.824-1.456 4.13-2.334 6.641-2.334z"/>
</svg>
